<svg xmlns="http://www.w3.org/2000/svg" width="512" height="512" viewBox="0 0 512 512"><rect width="512" height="512" fill="#F01563"/>
<rect x="106" y="176" width="300" height="250" rx="80" fill="#fff"/>
<g stroke="#fff" stroke-width="8" stroke-linecap="round">
<line x1="256" y1="176" x2="256" y2="128"/>
<line x1="256" y1="128" x2="192" y2="80"/><line x1="256" y1="128" x2="256" y2="64"/><line x1="256" y1="128" x2="320" y2="80"/>
<line x1="192" y1="80" x2="256" y2="64"/><line x1="320" y1="80" x2="256" y2="64"/>
</g>
<g fill="#fff"><circle cx="256" cy="128" r="16"/><circle cx="192" cy="80" r="14"/><circle cx="256" cy="64" r="14"/><circle cx="320" cy="80" r="14"/></g>
<g transform="translate(0 20)"><rect x="186" y="221" width="40" height="90" rx="20" fill="#F01563"/><rect x="286" y="221" width="40" height="90" rx="20" fill="#F01563"/><path d="M216,346 Q256,372 296,346" stroke="#F01563" stroke-width="14" fill="none" stroke-linecap="round"/></g>
</svg>
